<svg width="32" height="32" viewBox="0 0 32 32" fill="none" xmlns="http://www.w3.org/2000/svg">
<path d="M16.0001 25.3334C16.7365 25.3334 17.3334 24.7365 17.3334 24.0001V17.3334H24.0001C24.7365 17.3334 25.3334 16.7365 25.3334 16.0001C25.3334 15.2637 24.7365 14.6667 24.0001 14.6667H17.3334V8.00008C17.3334 7.2637 16.7365 6.66675 16.0001 6.66675C15.2637 6.66675 14.6667 7.2637 14.6667 8.00008V14.6667H8.00008C7.2637 14.6667 6.66675 15.2637 6.66675 16.0001C6.66675 16.7365 7.2637 17.3334 8.00008 17.3334H14.6667V24.0001C14.6667 24.7365 15.2637 25.3334 16.0001 25.3334Z" fill="#0F1D40"/>
</svg>
